<svg xmlns="http://www.w3.org/2000/svg" viewBox="0 0 411 255.1">
    <path fill="#D5DFEA" d="M19 191.5c-1.8-4-2.5-8.6-1.7-13.3L39.3 49l-9-.7c-13-1-23.4 8.8-23.2 21.8l3.2 159.3c.3 13.1 11.1 23.2 24.2 22.5l250.3-13.5-37.6-5.1-210.4-28.5c-8.2-1.1-14.7-6.3-17.8-13.3z"></path>
    <path fill="#007399" d="M354.9 104.8c-2-12.9-13.9-26.3-26.4-29.8L70.9 4C58.3.6 46.2 8.3 44 21.1L39.3 49l-22 129.2c-.8 4.7-.1 9.3 1.7 13.3 3.1 6.9 9.7 12.1 17.8 13.2l210.3 28.5 37.6 5.1 68.8 9.3c12.9 1.8 21.9-7.4 20-20.3l-18.6-122.5zm-198.8 36.5c0-26.2 21.1-47.5 49.5-47.5 28.3 0 49.2 20.9 49.2 47.2v.3c0 26.2-21.1 47.5-49.5 47.5-28.3 0-49.2-20.9-49.2-47.2v-.3zM54 62.4h25.9v46.1c6.3-8.5 15-14.8 28.4-14.8 21.3 0 41.5 16.7 41.5 47.2v.3c0 30.5-19.9 47.2-41.5 47.2-13.8 0-22.3-6.3-28.4-13.6v11.9H54V62.4zm258.4 124.3L294 158.3l-18.4 28.4h-27.1l32-46.3-30.8-44.9h27.8l17 26.7 17.2-26.7h27.1L308 140.1l32.2 46.7h-27.8z"></path>
    <path fill="#FFF" d="M79.9 174.8c6.1 7.3 14.6 13.6 28.4 13.6 21.6 0 41.5-16.7 41.5-47.2v-.3c0-30.5-20.3-47.2-41.5-47.2-13.5 0-22.1 6.3-28.4 14.8V62.4H54v124.3h25.9v-11.9zm-.4-33.9c0-15.2 10-25.2 22.1-25.2 12.1 0 22.3 10 22.3 25.2v.3c0 15.3-10.2 25.2-22.3 25.2-12.1 0-22.1-10-22.1-25.2v-.3zM205.3 188.8c28.4 0 49.5-21.3 49.5-47.5v-.3c0-26.2-20.9-47.2-49.2-47.2-28.4 0-49.5 21.3-49.5 47.5v.3c0 26.2 20.9 47.2 49.2 47.2zm-23.7-47.9c0-13.5 8.9-24.9 23.7-24.9 14.3 0 24 11.8 24 25.2v.3c0 13.5-8.9 24.9-23.7 24.9-14.3 0-24-11.7-24-25.2v-.3z"></path>
    <path fill="#FFF" d="M338.8 95.5h-27.1l-17.2 26.7-17-26.7h-27.8l30.8 44.9-32 46.3h27.1l18.4-28.4 18.4 28.4h27.7l-32.2-46.6zM354.1 76c8.9 0 14.7-4.4 14.7-14.5V44.2H360v17.6c0 4.4-2.3 6.4-5.8 6.4s-5.8-2.1-5.8-6.7V44.2h-8.8v17.6c0 9.7 5.6 14.2 14.5 14.2zM391.7 57.6l11.8-13.4h-10.2l-10.8 12.7V44.2h-8.7v31.2h8.7v-8l3.2-3.6 7.8 11.6h10.4z"></path>
    <path fill="#007399" d="M101.7 166.5c12.1 0 22.3-9.9 22.3-25.2v-.3c0-15.2-10.2-25.2-22.3-25.2-12.1 0-22.1 10-22.1 25.2v.3c-.1 15.1 10 25.2 22.1 25.2zM205.6 166.5c14.8 0 23.7-11.4 23.7-24.9v-.3c0-13.5-9.7-25.2-24-25.2-14.8 0-23.7 11.4-23.7 24.9v.3c0 13.4 9.7 25.2 24 25.2z"></path>
</svg>
